<?xml version="1.0" encoding="utf-8"?>
<!-- Svg Vector Icons : http://www.onlinewebfonts.com/icon -->
<!DOCTYPE svg PUBLIC "-//W3C//DTD SVG 1.1//EN" "http://www.w3.org/Graphics/SVG/1.1/DTD/svg11.dtd">
<svg version="1.1" xmlns="http://www.w3.org/2000/svg" xmlns:xlink="http://www.w3.org/1999/xlink" x="0px" y="0px" viewBox="0 0 1000 1000" enable-background="new 0 0 1000 1000" xml:space="preserve">
<metadata> Svg Vector Icons : http://www.onlinewebfonts.com/icon </metadata>
<g><path d="M505.7,134.1c-81.3,0-147.2,65.9-147.2,147.2s65.9,147.2,147.2,147.2s147.2-65.9,147.2-147.2S587,134.1,505.7,134.1z M505.7,384.2c-56.8,0-102.9-46-102.9-102.9c0-56.8,46-102.9,102.9-102.9c56.8,0,102.9,46,102.9,102.9C608.5,338.1,562.5,384.2,505.7,384.2z"/><path d="M497.7,10C337.7,10,208,137.9,208,297.9c0,87.7,48.8,156.7,100.6,219.5c43.7,53,189.2,232.8,189.2,232.8s150.6-183.5,197.1-245c45.6-60.4,91.8-125.6,91.8-207.3C786.5,137.9,657.7,10,497.7,10z M679.9,462.6c-49.2,64.3-182.2,226.8-182.2,226.8S354.1,517.3,316,462.2c-33.3-48.2-63.3-101.1-63.3-164.3c0-135.3,109.7-244.9,244.9-244.9c135.3,0,244.9,109.7,244.9,244.9C742.7,358.6,714.1,417.9,679.9,462.6z"/><path d="M145.6,333.8l-124,80.8L22.1,990l310.8-173.8L710.2,990l268.1-136.1V205.8L836.9,331.1l31,31l74.7-74.7V831L712.3,949.7L332.9,769L62.1,926.7V433.5l107.8-67.8L145.6,333.8z"/></g>
</svg>