<?xml version="1.0" encoding="utf-8"?>
<!-- Svg Vector Icons : http://www.onlinewebfonts.com/icon -->
<!DOCTYPE svg PUBLIC "-//W3C//DTD SVG 1.1//EN" "http://www.w3.org/Graphics/SVG/1.1/DTD/svg11.dtd">
<svg version="1.1" xmlns="http://www.w3.org/2000/svg" xmlns:xlink="http://www.w3.org/1999/xlink" x="0px" y="0px" viewBox="0 0 1000 1000" enable-background="new 0 0 1000 1000" xml:space="preserve">
<metadata> Svg Vector Icons : http://www.onlinewebfonts.com/icon </metadata>
<g><g transform="translate(0.000000,512.000000) scale(0.100000,-0.100000)"><path d="M4631.2,5015.7c-634.2-57.5-1212.8-212.7-1755.1-475.2c-546.1-264.4-894.8-513.5-1339.3-959.9c-446.4-446.4-676.4-766.4-948.4-1322.1c-231.8-469.4-367.9-914-454.1-1465.8c-46-308.5-46-1032.7,1.9-1341.2c90.1-586.3,239.5-1057.6,488.6-1548.1c254.8-496.3,494.3-822,912-1239.7c438.8-440.7,764.5-674.4,1302.9-938.9c343-168.6,567.1-252.9,915.9-344.9c1452.4-383.2,2981.4-76.6,4209.5,839.2c233.8,176.3,756.8,699.3,933.1,933.1C9909.8-1493,10170.4,202.7,9610.9,1779.6c-168.6,475.2-484.8,1032.7-812.4,1437c-187.8,231.8-609.3,640-837.3,810.5C7286.8,4532.9,6530,4849,5685,4979.3C5491.5,5008.1,4817,5033,4631.2,5015.7z M5437.8,4624.9c555.7-55.6,1046.2-197.3,1559.7-450.3c906.3-446.4,1601.8-1142,2050.1-2050.1C9381,1451.9,9534.3,746.8,9511.3-11.9c-21.1-689.8-161-1255-463.7-1868.1c-582.5-1182.2-1640.1-2044.4-2921.9-2377.8c-645.7-168.6-1393-183.9-2073.2-44.1c-503.9,103.5-1126.6,364-1557.7,653.4C1471.6-2964.5,781.9-1924.1,551.9-720.9C140,1423.2,1341.3,3574.9,3383.8,4349C4029.5,4594.2,4755.7,4691.9,5437.8,4624.9z"/><path d="M4499,2632.2c-389-103.5-712.8-423.4-839.2-833.5c-30.6-101.5-34.5-185.9-34.5-699.4V515l53.6-151.4c61.3-172.4,183.9-369.8,297-479l78.6-74.7l-206.9-101.5c-557.6-274-979.1-756.8-1159.2-1325.9c-59.4-189.7-107.3-450.3-107.3-582.5c0-82.4,7.7-103.5,65.1-160.9l65.1-65.2l1684.2,1.9h1682.3l-116.9,44.1c-160.9,59.4-287.4,136-402.4,245.2l-97.7,92H4242.2c-672.5,0-1220.5,5.7-1220.5,15.3c0,69,92,366,151.4,494.3c222.3,473.2,594,812.4,1069.2,973.3c312.3,105.4,712.8,124.5,984.8,46l166.7-49.8l145.6,147.5c80.5,80.5,145.6,151.4,145.6,159c0,5.7-30.7,17.2-67.1,23c-36.4,7.7-67.1,19.2-67.1,24.9s53.6,67.1,116.9,136c128.4,136.1,226.1,318.1,275.9,511.6c42.2,162.9,42.2,1151.5,0,1329.7c-46,191.6-170.5,410-316.1,557.6C5330.5,2620.7,4903.2,2737.6,4499,2632.2z M5052.7,2237.5c197.4-59.4,398.5-251,480.9-461.8c40.3-103.5,44.1-145.6,51.7-586.3c3.8-306.6,0-521.2-15.3-603.5c-46-262.5-205-475.2-438.8-586.3c-116.9-55.6-141.8-59.4-327.6-59.4S4592.8-56,4474,1.5c-178.2,84.3-289.3,191.6-375.5,366l-70.9,145.6l-5.7,544.2c-5.8,505.8-3.8,553.7,34.5,676.4c63.2,206.9,197.3,364,396.6,459.8C4648.4,2289.2,4834.3,2302.6,5052.7,2237.5z"/><path d="M7332.8,1070.6l-411.9-411.9l231.8-233.8C7281,294.6,7390.3,175.8,7396,160.5c23-72.8-61.3-178.2-452.2-572.9c-224.2-224.2-440.7-433-480.9-463.7c-124.5-92-143.7-84.3-417.7,187.8L5800-445l-417.7-415.8l-415.8-415.8l354.5-356.4c523.1-525,645.7-599.7,998.2-617c138-5.7,212.7,0,297,24.9c247.2,70.9,277.8,97.7,1142,963.8C8651-364.5,8643.3-372.1,8706.6-82.8c47.9,231.9-1.9,503.9-130.3,707c-55.6,90-791.3,858.4-820.1,858.4C7748.6,1482.6,7558.9,1296.7,7332.8,1070.6z M8007.2,683.6c281.7-283.6,325.7-358.3,325.7-561.4c1.9-249.1-3.8-256.8-862.2-1117.1c-862.2-864.1-864.1-866-1115.1-866c-214.6,0-300.8,49.8-594,343L5524-1278.4l136.1,138l137.9,136l120.7-107.3c172.4-155.2,260.6-193.5,436.8-193.5c228,0,260.6,23,831.6,599.7c320,321.9,517.3,534.6,548,592.1c38.3,72.8,47.9,118.8,47.9,226.1c-1.9,172.4-46,270.2-191.6,427.3l-111.1,120.7l132.2,134.1c70.9,72.8,136,132.2,141.8,132.2C7760,926.9,7873.1,817.7,8007.2,683.6z"/></g></g>
</svg>